<mxfile host="65bd71144e">
    <diagram id="mJtwf5pUPDsy-Glc759V" name="Page-1">
        <mxGraphModel dx="1870" dy="571" grid="1" gridSize="10" guides="1" tooltips="1" connect="1" arrows="1" fold="1" page="1" pageScale="1" pageWidth="850" pageHeight="1100" math="0" shadow="0">
            <root>
                <mxCell id="0"/>
                <mxCell id="1" parent="0"/>
                <mxCell id="6" value="" style="edgeStyle=none;html=1;fontFamily=Comic Sans MS;fontSize=20;fontColor=#000000;" parent="1" source="4" target="5" edge="1">
                    <mxGeometry relative="1" as="geometry"/>
                </mxCell>
                <mxCell id="4" value="&lt;font style=&quot;font-size: 20px;&quot; color=&quot;#000000&quot;&gt;Start&lt;/font&gt;" style="ellipse;whiteSpace=wrap;html=1;labelBackgroundColor=none;labelBorderColor=none;fontFamily=Comic Sans MS;fillColor=#f5f5f5;strokeColor=#666666;fontColor=#333333;fontSize=20;fontStyle=1" parent="1" vertex="1">
                    <mxGeometry x="340.78000000000003" y="20" width="120" height="80" as="geometry"/>
                </mxCell>
                <mxCell id="15" value="" style="edgeStyle=none;html=1;" parent="1" source="5" target="14" edge="1">
                    <mxGeometry relative="1" as="geometry"/>
                </mxCell>
                <mxCell id="5" value="&lt;u&gt;Define&lt;/u&gt;: arr[], key" style="shape=Rectangle;perimeter=RectanglePerimeter;whiteSpace=wrap;html=1;fixedSize=1;labelBackgroundColor=none;labelBorderColor=none;fontFamily=Comic Sans MS;fontSize=20;fontColor=#333333;fillColor=#f5f5f5;strokeColor=#666666;fontStyle=1" parent="1" vertex="1">
                    <mxGeometry x="275.97" y="130" width="250.63" height="60" as="geometry"/>
                </mxCell>
                <mxCell id="12" value="" style="edgeStyle=none;html=1;fontFamily=Comic Sans MS;fontSize=20;fontColor=#000000;" parent="1" source="9" target="11" edge="1">
                    <mxGeometry relative="1" as="geometry"/>
                </mxCell>
                <mxCell id="9" value="Print arr[]" style="shape=rectangle;perimeter=parallelogramPerimeter;whiteSpace=wrap;html=1;fixedSize=1;labelBackgroundColor=none;labelBorderColor=none;fontFamily=Comic Sans MS;fontSize=20;fontColor=#333333;fillColor=#f5f5f5;strokeColor=#666666;fontStyle=1" parent="1" vertex="1">
                    <mxGeometry x="318.65000000000003" y="960" width="175" height="70" as="geometry"/>
                </mxCell>
                <mxCell id="11" value="&lt;font style=&quot;font-size: 20px;&quot; color=&quot;#000000&quot;&gt;End&lt;/font&gt;" style="ellipse;whiteSpace=wrap;html=1;labelBackgroundColor=none;labelBorderColor=none;fontFamily=Comic Sans MS;fillColor=#f5f5f5;strokeColor=#666666;fontColor=#333333;fontSize=20;fontStyle=1" parent="1" vertex="1">
                    <mxGeometry x="345.65000000000003" y="1050" width="120" height="80" as="geometry"/>
                </mxCell>
                <mxCell id="17" value="" style="edgeStyle=none;html=1;" parent="1" source="14" target="16" edge="1">
                    <mxGeometry relative="1" as="geometry"/>
                </mxCell>
                <mxCell id="14" value="&lt;u&gt;Get:&lt;/u&gt;&amp;nbsp;arr[]" style="shape=rectangle;perimeter=parallelogramPerimeter;whiteSpace=wrap;html=1;fixedSize=1;labelBackgroundColor=none;labelBorderColor=none;fontFamily=Comic Sans MS;fontSize=20;fontColor=#333333;fillColor=#f5f5f5;strokeColor=#666666;fontStyle=1" parent="1" vertex="1">
                    <mxGeometry x="312.53000000000003" y="220" width="175" height="70" as="geometry"/>
                </mxCell>
                <mxCell id="19" value="" style="edgeStyle=none;html=1;" parent="1" source="16" target="18" edge="1">
                    <mxGeometry relative="1" as="geometry"/>
                </mxCell>
                <mxCell id="16" value="&lt;u&gt;Loop forward:&lt;/u&gt;&amp;nbsp;i=1 to i&amp;lt;arr.size" style="shape=parallelogram;whiteSpace=wrap;html=1;labelBackgroundColor=none;labelBorderColor=none;fontFamily=Comic Sans MS;fontSize=20;fontColor=#333333;fillColor=#f5f5f5;strokeColor=#666666;fontStyle=1" parent="1" vertex="1">
                    <mxGeometry x="180" y="320" width="450.91" height="90" as="geometry"/>
                </mxCell>
                <mxCell id="24" value="" style="edgeStyle=none;html=1;" parent="1" source="18" target="23" edge="1">
                    <mxGeometry relative="1" as="geometry"/>
                </mxCell>
                <mxCell id="18" value="key = arr[i]" style="shape=rectangle;perimeter=parallelogramPerimeter;whiteSpace=wrap;html=1;fixedSize=1;fontSize=20;fontFamily=Comic Sans MS;fillColor=#f5f5f5;strokeColor=#666666;fontColor=#333333;rounded=0;labelBackgroundColor=none;labelBorderColor=none;fontStyle=1;" parent="1" vertex="1">
                    <mxGeometry x="310.91" y="430" width="189.63" height="60" as="geometry"/>
                </mxCell>
                <mxCell id="28" value="" style="edgeStyle=none;html=1;" parent="1" source="23" target="27" edge="1">
                    <mxGeometry relative="1" as="geometry"/>
                </mxCell>
                <mxCell id="23" value="&lt;u&gt;Loop backward:&lt;/u&gt;&amp;nbsp;j=i-1 to j&amp;gt;=0" style="shape=parallelogram;whiteSpace=wrap;html=1;labelBackgroundColor=none;labelBorderColor=none;fontFamily=Comic Sans MS;fontSize=20;fontColor=#333333;fillColor=#f5f5f5;strokeColor=#666666;fontStyle=1" parent="1" vertex="1">
                    <mxGeometry x="182.79" y="520" width="445" height="90" as="geometry"/>
                </mxCell>
                <mxCell id="31" value="Yes" style="edgeStyle=none;html=1;" parent="1" source="27" target="29" edge="1">
                    <mxGeometry relative="1" as="geometry"/>
                </mxCell>
                <mxCell id="40" value="No" style="edgeStyle=none;html=1;" edge="1" parent="1" source="27" target="39">
                    <mxGeometry relative="1" as="geometry"/>
                </mxCell>
                <mxCell id="27" value="if arr[j] &amp;gt; key" style="shape=parallelogram;whiteSpace=wrap;html=1;labelBackgroundColor=none;labelBorderColor=none;fontFamily=Comic Sans MS;fontSize=20;fontColor=#333333;fillColor=#f5f5f5;strokeColor=#666666;fontStyle=1" parent="1" vertex="1">
                    <mxGeometry x="285.35" y="640" width="239.88" height="70" as="geometry"/>
                </mxCell>
                <mxCell id="34" value="After the nested loop terminates" style="edgeStyle=none;html=1;" parent="1" source="29" target="32" edge="1">
                    <mxGeometry relative="1" as="geometry"/>
                </mxCell>
                <mxCell id="42" style="edgeStyle=none;html=1;entryX=0;entryY=0.5;entryDx=0;entryDy=0;" edge="1" parent="1" source="29" target="23">
                    <mxGeometry relative="1" as="geometry">
                        <mxPoint x="230" y="770" as="targetPoint"/>
                        <Array as="points">
                            <mxPoint x="40" y="780"/>
                            <mxPoint x="40" y="560"/>
                        </Array>
                    </mxGeometry>
                </mxCell>
                <mxCell id="29" value="arr[j+1] = arr[j]" style="rounded=0;whiteSpace=wrap;html=1;labelBackgroundColor=none;labelBorderColor=none;fontFamily=Comic Sans MS;fontSize=20;fontColor=#333333;fillColor=#f5f5f5;strokeColor=#666666;fontStyle=1;align=center;" parent="1" vertex="1">
                    <mxGeometry x="272.79" y="740" width="265" height="70" as="geometry"/>
                </mxCell>
                <mxCell id="35" value="" style="edgeStyle=orthogonalEdgeStyle;html=1;entryX=0.5;entryY=0;entryDx=0;entryDy=0;curved=1;" parent="1" source="32" target="9" edge="1">
                    <mxGeometry relative="1" as="geometry">
                        <mxPoint x="406.1549999999999" y="980" as="targetPoint"/>
                    </mxGeometry>
                </mxCell>
                <mxCell id="43" style="edgeStyle=none;html=1;entryX=0;entryY=0.25;entryDx=0;entryDy=0;" edge="1" parent="1" source="32" target="16">
                    <mxGeometry relative="1" as="geometry">
                        <Array as="points">
                            <mxPoint x="-90" y="880"/>
                            <mxPoint x="-90" y="720"/>
                            <mxPoint x="-80" y="340"/>
                        </Array>
                    </mxGeometry>
                </mxCell>
                <mxCell id="32" value="arr[j+1] = k" style="rounded=0;whiteSpace=wrap;html=1;labelBackgroundColor=none;labelBorderColor=none;fontFamily=Comic Sans MS;fontSize=20;fontColor=#333333;fillColor=#f5f5f5;strokeColor=#666666;fontStyle=1;align=center;" parent="1" vertex="1">
                    <mxGeometry x="281.91" y="860" width="248.49" height="70" as="geometry"/>
                </mxCell>
                <mxCell id="39" value="break" style="whiteSpace=wrap;html=1;fontSize=20;fontFamily=Comic Sans MS;fillColor=#f5f5f5;strokeColor=#666666;fontColor=#333333;labelBackgroundColor=none;labelBorderColor=none;fontStyle=1;" vertex="1" parent="1">
                    <mxGeometry x="610.91" y="647.5" width="120" height="55" as="geometry"/>
                </mxCell>
            </root>
        </mxGraphModel>
    </diagram>
</mxfile>